<svg width="48" height="48" viewBox="0 0 48 48" fill="none" xmlns="http://www.w3.org/2000/svg">
<path d="M40.5 5.5L7.5 5.5C6.96957 5.5 6.46086 5.71071 6.08579 6.08579C5.71071 6.46086 5.5 6.96957 5.5 7.5L5.5 40.5C5.5 41.0304 5.71071 41.5391 6.08579 41.9142C6.46086 42.2893 6.96957 42.5 7.5 42.5L40.5 42.5C41.0304 42.5 41.5391 42.2893 41.9142 41.9142C42.2893 41.5391 42.5 41.0304 42.5 40.5L42.5 7.5C42.5 6.96957 42.2893 6.46086 41.9142 6.08579C41.5391 5.71071 41.0304 5.5 40.5 5.5Z" stroke="#03A2FF" stroke-linecap="round" stroke-linejoin="round"/>
<path d="M28.77 20.331L28.761 20.376C28.409 22.373 26.505 23.992 24.507 23.992C22.51 23.992 21.177 22.373 21.529 20.376L22.179 16.691C22.531 14.694 24.435 13.075 26.432 13.075C28.43 13.075 29.763 14.695 29.412 16.691L29.403 16.736M15.817 18.534C17.324 18.534 18.331 19.756 18.065 21.264C17.799 22.772 16.362 23.992 14.855 23.992L10.35 23.992L12.275 13.075L16.779 13.075C18.286 13.075 19.293 14.297 19.027 15.805C18.761 17.313 17.324 18.534 15.817 18.534ZM15.817 18.534L11.314 18.534M37.105 20.34L32.376 20.34M30.558 23.96L36.026 13.075L37.649 23.992M20.656 34.925C19.639 34.925 18.96 34.101 19.139 33.084L19.35 31.887C19.53 30.871 20.5 30.047 21.516 30.047C22.533 30.047 23.211 30.871 23.032 31.887L22.822 33.084C22.642 34.101 21.672 34.925 20.656 34.925Z" stroke="#03A2FF" stroke-linecap="round" stroke-linejoin="round"/>
<path d="M10.036 31.887C10.215 30.871 11.184 30.047 12.201 30.047C13.218 30.047 13.897 30.871 13.717 31.887L13.182 34.925M10.36 30.046L9.5 34.925" stroke="#03A2FF" stroke-linecap="round" stroke-linejoin="round"/>
<path d="M13.717 31.887C13.897 30.871 14.867 30.047 15.883 30.047C16.9 30.047 17.579 30.871 17.399 31.887L16.864 34.925" stroke="#03A2FF" stroke-linecap="round" stroke-linejoin="round"/>
<path d="M31.5805 28.2895C31.9088 27.9889 31.9706 27.522 31.7184 27.2467C31.4663 26.9713 30.9957 26.9918 30.6675 27.2924C30.3392 27.5931 30.2774 28.06 30.5296 28.3353C30.7817 28.6107 31.2522 28.5902 31.5805 28.2895Z" fill="#03A2FF"/>
<path d="M30.727 30.046L29.866 34.925M33.1 27.561L31.964 34.004C31.874 34.513 32.214 34.924 32.722 34.924L32.998 34.924M37.858 33.996C37.443 34.551 36.78 34.925 36.095 34.925C35.078 34.925 34.399 34.101 34.578 33.084L34.789 31.887C34.969 30.871 35.939 30.047 36.955 30.047C37.972 30.047 38.651 30.871 38.471 31.887L38.366 32.486L34.684 32.486M24.898 31.887C25.078 30.871 26.047 30.047 27.064 30.047C28.08 30.047 28.759 30.871 28.58 31.887L28.369 33.084C28.189 34.101 27.22 34.924 26.203 34.924C25.187 34.924 24.508 34.101 24.687 33.084M24.363 34.925L25.661 27.561" stroke="#03A2FF" stroke-linecap="round" stroke-linejoin="round"/>
</svg>
